/* XPM */
static char *_647465292242[] = {
/* columns rows colors chars-per-pixel */
"32 32 19 1 ",
"  c #131212",
". c #424244",
"X c #434345",
"o c #444446",
"O c #454547",
"+ c #464648",
"@ c #474749",
"# c #48484A",
"$ c #49494B",
"% c #4B4B4D",
"& c #727274",
"* c #737375",
"= c #767678",
"- c #777779",
"; c #78787A",
": c #79797B",
"> c #7B7B7D",
", c #892602",
"< c #7E7E80",
/* pixels */
"*::>::O+++++++++++++++++$O::>::*",
":<*==*%++++++++++++++++++$*==*>:",
":*O+++OO++++++++++++++++O++++$*:",
">=++++++++++++++++++++++++++++=>",
":=++++++++++++++++++++++++++++=:",
":*++++++++++++++++++++++++++++*:",
"O$++++++++++++++++++++++++++++$O",
"++++++++++++++++++++++++++++.O$+",
"++++++++++++++++++++++++++++++++",
"++++++++++++       ,++++++++++++",
"+++++++++++        ,,+++++++++++",
"++++++++++          ,,++++++++++",
"++++++++++          ,,++++++++++",
"++++++++++          ,,++++++++++",
"++++++++++          ,,++++++++++",
"++++++++++          ,,++++++++++",
"+++++++++++        ,,+++++++++++",
"++++++++++++       ,++++++++++++",
"+++++++++++          +++++++++++",
"+++++++++++          +++++++++++",
"+++++++++++          +++++++++++",
"+++++++++++          +++++++++++",
"+++++++++++          +++++++++++",
"+++++++++++          +++++++++++",
"+++++++++++          +++++++++++",
"+++++++.+++   , ,    ++++++++++O",
">*O+++++++     , ,    +++++O++*:",
":=++++++++            +++++$O+=:",
">=++++++++            +++++O..:>",
":*++++++++            ++++%+O$*=",
":>&==*+++ ,,,  ,, ,,, ,+++*==&<:",
"*>:>::+++,  , ,,, , , ,++O::>::*"
};
