/* XPM */
static char *_647465298401[] = {
/* columns rows colors chars-per-pixel */
"32 32 255 2 ",
"   c black",
".  c #030000",
"X  c #020001",
"o  c #000200",
"O  c #020300",
"+  c #000002",
"@  c gray1",
"#  c #040000",
"$  c #050000",
"%  c #060000",
"&  c #070000",
"*  c #060100",
"=  c #070200",
"-  c #060201",
";  c #040203",
":  c #070302",
">  c #000501",
",  c #020500",
"<  c #000700",
"1  c #060701",
"2  c #070602",
"3  c #000007",
"4  c #050304",
"5  c #050006",
"6  c #070506",
"7  c #080000",
"8  c #090000",
"9  c #080100",
"0  c #090100",
"q  c #090001",
"w  c #0B0000",
"e  c #0A0100",
"r  c #0A0200",
"t  c #0B0200",
"y  c #0B0300",
"u  c #0B0203",
"i  c #0D0000",
"p  c #0E0000",
"a  c #0F0000",
"s  c #0D0200",
"d  c #0C0300",
"f  c #0D0003",
"g  c #090401",
"h  c #0B0400",
"j  c #0A0502",
"k  c #0B0603",
"l  c #0D0400",
"z  c #0C0401",
"x  c #0F0400",
"c  c #0E0500",
"v  c #0C0700",
"b  c #0E0700",
"n  c #0F0601",
"m  c #0E0701",
"M  c #0D0502",
"N  c #0E0603",
"B  c #0A0605",
"V  c #0C0704",
"C  c #0F0704",
"Z  c #000800",
"A  c #000900",
"S  c #000A00",
"D  c #000B01",
"F  c #070A00",
"G  c #060D00",
"H  c #000A04",
"J  c #000B05",
"K  c #080800",
"L  c #090901",
"P  c #080903",
"I  c #0E0800",
"U  c #0C0A00",
"Y  c #0D0D00",
"T  c #0D0805",
"R  c #0E0905",
"E  c #0C0807",
"W  c #0F0A07",
"Q  c #060608",
"!  c #070709",
"~  c #0B0008",
"^  c #090408",
"/  c #000F0B",
"(  c gray3",
")  c #0F0B0A",
"_  c #0D0D0F",
"`  c #120000",
"'  c #130000",
"]  c #150000",
"[  c #160300",
"{  c #130400",
"}  c #130500",
"|  c #100702",
" . c #170600",
".. c #150603",
"X. c #150004",
"o. c #170006",
"O. c #160106",
"+. c #1D0000",
"@. c #1D0300",
"#. c #190600",
"$. c #180507",
"%. c #110800",
"&. c #110803",
"*. c #130802",
"=. c #120902",
"-. c #160900",
";. c #170B00",
":. c #100805",
">. c #130A05",
",. c #110906",
"<. c #120A07",
"1. c #130C06",
"2. c #150C07",
"3. c #1A0900",
"4. c #190C00",
"5. c #180906",
"6. c #17000A",
"7. c #100708",
"8. c #10060F",
"9. c #100B08",
"0. c #110C09",
"q. c #140C09",
"w. c #130D0D",
"e. c #120E0D",
"r. c #18080B",
"t. c #1C0A0A",
"y. c #021100",
"u. c #061109",
"i. c #04100C",
"p. c #18100D",
"a. c #030710",
"s. c #0B0B13",
"d. c #0E0910",
"f. c #121011",
"g. c #121214",
"h. c #1B1716",
"j. c #161618",
"k. c #19191B",
"l. c #200000",
"z. c #220000",
"x. c #220001",
"c. c #290000",
"v. c #220800",
"b. c #260800",
"n. c #220E00",
"m. c #21030D",
"M. c #310500",
"N. c #340A00",
"B. c #201C1B",
"V. c #3E1D14",
"C. c #323031",
"Z. c #333335",
"A. c #3D3938",
"S. c #3A3A3C",
"D. c #3C3C3E",
"F. c #651C15",
"G. c #701A19",
"H. c #6E2C0C",
"J. c #622B17",
"K. c #772414",
"L. c #75211F",
"P. c #76281B",
"I. c #4C3831",
"U. c #453D3A",
"Y. c #413D3C",
"T. c #423E3D",
"R. c #4E3F3C",
"E. c #553834",
"W. c #64312E",
"Q. c #32483C",
"!. c #4D443B",
"~. c #4B443C",
"^. c #56483F",
"/. c #3E3E40",
"(. c #3F3C45",
"). c #354447",
"_. c #3F444A",
"`. c #3F474A",
"'. c #404042",
"]. c #414143",
"[. c #434142",
"{. c #424244",
"}. c #434345",
"|. c #434047",
" X c #464445",
".X c #444446",
"XX c #454547",
"oX c #474546",
"OX c #4A4643",
"+X c #4C4646",
"@X c #4A4947",
"#X c #4C4845",
"$X c #414149",
"%X c #444348",
"&X c #41464A",
"*X c #464449",
"=X c #464648",
"-X c #474749",
";X c #494748",
":X c #49474A",
">X c #48474F",
",X c #44494D",
"<X c #494949",
"1X c #4A4849",
"2X c #48484A",
"3X c #49494B",
"4X c #4B494A",
"5X c #4D4948",
"6X c #4E4D4B",
"7X c #4A4A4C",
"8X c #4B4B4D",
"9X c #4A494E",
"0X c #4C4C4E",
"qX c #4D4D4F",
"wX c #4E4C4F",
"eX c #594745",
"rX c #534940",
"tX c #54404B",
"yX c #554A4E",
"uX c #504E4F",
"iX c #4B4853",
"pX c #4C4B50",
"aX c #4B4C51",
"sX c #4E4E50",
"dX c #727272",
"fX c #717672",
"gX c #727274",
"hX c #737375",
"jX c #787A75",
"kX c #797A75",
"lX c #767678",
"zX c #777779",
"xX c #75767A",
"cX c #76777C",
"vX c #77767E",
"bX c #78787A",
"nX c #78797B",
"mX c #79797B",
"MX c #7B7B7D",
"NX c #7B7C7E",
"BX c #7C7E7D",
"VX c #851B03",
"CX c #821B0A",
"ZX c #841F0B",
"AX c #851B0D",
"SX c #832906",
"DX c #87230C",
"FX c #81270D",
"GX c #922900",
"HX c #802312",
"JX c #97221B",
"KX c #822224",
"LX c #852A29",
"PX c #7E7E80",
"IX c #7D7B86",
/* pixels */
"hXmXmXMXmXmX.X-X-X.X-X-X-X.X-X-X.X.X-X-X-X-X.X.X3X.XmXmXmXmXmXhX",
"mXPXhXlXlXhX3X-X-X.X-X.X-X-X.X-X-X-X-X.X.X-X-X-X3X3XlXlXlXhXBXmX",
"mXhX-X.X-X0X}..X-X-X.X-X.X.X-X-X-X-X-X.X.X-X-X-X.X}.7X-X.X3XhXbX",
"MXlX.X}..X.X.X}..X-X-X-X-X-X-X.X.X.X-X-X-X-X.X.X'.-X.X.X}..XlXMX",
"mXlX-X.X3X.X0X.X-X-X.X.X.X-X-X-X-X-X.X-X-X.X-X-X.X5X.X2X.X-XlXmX",
"mXlX7X}.}.'.3X-X.X-X-X-X-X-X.X.X-X.X-X-X-X-X.X-X-X;X_..X.X8XhXmX",
".X3X}.-X0X7X-X}..X-X-X-X-X.X.X:X-X-X.X.X.X.X-X-X}.-X3X0X-X}.3X.X",
"-X-X.X}..X.X.X.X-X-X.X.X-X-X:X.X.X-X-X-X-X-X-X.X-X}.-X.X'..X-X:X",
".X.X-X-X-X-X.X.X-X;XuXA.C j N d d N d B A.uX:X-X.X-X-X.X-X-X-X.X",
"-X-X-X.X.X-X-X-X3X.XC.B.= r d N N N r = B.C..X7X.X-X-X.X-X.X-X-X",
"-X-X-X.X.X-X-X-X8X.Xf.= = d d d d d N = = f..X5X-X-X-X-X.X-X.X-X",
".X.X-X-X-X-X.X.X:X.X; = j :.| r r | ,.j + = .X:X-X.X.X-X-X-X.X-X",
"-X-X.X-X-X.X-X-X.X;X6 ^ T N | d r | | C ) 6 -X.X-X.X.X-X-X-X.X-X",
"-X.X-X-X-X-X.X-X.X;XB 0.= r | d d | r = ) B ;X}.-X-X-X-X.X-X.X-X",
"-X-X.X.X.X.X-X-X.X3X= ( = r N N N N r = T + 3X.X.X-X-X.X-X.X-X-X",
".X-X-X-X-X-X-X.X-X5X+ B j C r d r r C r N + 3X-X.X-X-X.X-X-X-X.X",
".X3X}..X.X'.-X.X[.:XD.w.= = r ,.,.r = = w.T..X'..X8X.X.X.X8X.X:X",
".X.X3X3X3X0X3X-X;X6X#XY.) T 0.r r 0.C ) T.5X6X;X.X:X3X8X.X3X'.-X",
".X}.3X.X}..X'..X#XA.= ) + ,.C d r N T = ) = A.#X.X.X/.3X.X.X.X3X",
"3X3X0X.X.X}.'.0XT.h.= 0.= ,.,.r r 0.C = 0.= h.T.3X3X'..X3X3X.X-X",
"}..X.X.X.X7X0X/.,.= ) w.d r r d r r r r w.,.+ 0.D.0X0X.X3X3X.X3X",
"3X3X3X3X'.3X'._ j j T r 2.d = | | r N >.r T j j k.Z.sX.X.X.X'.3X",
"-X'..X3X-X0XS.6 + 2.r r r d | r r ..N r r r 0.= + f..X.X.X.X.X-X",
"3X.X3X.X-XD.k.+ ,.U.N N d d d N d d d d I N U.,.! ! '.:X.X3X3X.X",
"+X-X,X`.:XI.N.J.I ).N ..H ! z.o.6.d F F H = !...J.N.I.@X`.,X.X+X",
"OX3X&X`.:XeXV.N.KXtX| + b.z.+./ < >.d ' L 2.E.W.N.V.eX:X_.&X3XOX",
"kXdX0X$X|.yXeXI.R.u.< G + ; ;.H o.5.d ..' d [ ^.I.eXyX|.$XpXdXkX",
"kXBX7X>XiX|.:X@XrXr + r., $.r ~ o.u < j ' t.j Q.3X3X.XiX>X7XBXkX",
"fXPX}.|.>X$X_.`.#Xr s.u d d 5 8.H H / ^ < 7.+ pX`._._.>X(.%XNXfX",
"cXlXpX$X7XpX&X,X.XN | < m.w.s., [ #.H r < z.= ~.,X&XpX7X%XpXlXmX",
"cXcXlXMXBXdX3X-XLXK.d M.F.HXd I ZXP.y.c.N G.v.+.-X-XdXNXMXxXcXcX",
"IXcXbXfXkXkXOX;XN SX[ AXn.AX| FXGXVX4.L.3.JXH.DX;XOXjXjXfXlXIXIX"
};
