/* XPM */
static char *_647465286467[] = {
/* columns rows colors chars-per-pixel */
"32 32 21 1 ",
"  c #131212",
". c #404042",
"X c #424244",
"o c #434345",
"O c #444446",
"+ c #454547",
"@ c #464648",
"# c #474749",
"$ c #48484A",
"% c #49494B",
"& c #4B4B4D",
"* c #4C4C4E",
"= c #727274",
"- c #737375",
"; c #767678",
": c #777779",
"> c #78787A",
", c #79797B",
"< c #7B7B7D",
"1 c #892602",
"2 c #7E7E80",
/* pixels */
"-,,<,,O##O###O##OO####OO%O,,<,,-",
",2-;;-%##O#O##O####OO####%-;;-<,",
",-#O#*oO##O#OO#####OO###O.*#O%-,",
"<;OoOOOoO######OOO####OOo#OOoO;<",
",;#O%O*O##OOO#####O##O##O*o%O#;,",
",-&oo.%#O#####OO#O####O##%.OO*-,",
"O&o#&&#oO####O####OOOO##o#%*#o%O",
"##OoOOOO##OO##O#O######OOoO#.O##",
"OO####OO###O##O###O####O##O###O#",
"###OO####O##1       OO###O##O#O#",
"###OO###O#O11        #O###OO#O##",
"OO####OO##11          ##O######O",
"##O##O###O11          OO###OOO##",
"#O####O###11          ##OO#####O",
"##OOOO##OO11          #O##O####O",
"O######O##11          ###O##OO##",
"#OO#O####OO11        #OO##O###O#",
"######OO####1       #O###O##O#O#",
"O##O#O##O##          #####OO#O##",
"O##O##O#O#O          #OOO######O",
"###O#O#####          O#####OOO##",
"#O###O#O#OO          #O#OO#####O",
"O#O###O####          O####O####O",
"##O#O###OO#          ##O#O##OO##",
"##OoOOo##O#          ####oO#.O##",
"O%o#*%#o#O#    1 1   #OOo#%*#o&O",
",-&OO.%O##    1 1     ##O&.oO*-,",
",;#O%O*OO#            O#O*o%OO;,",
"<;OoOO#oO#            ##oOOOOo;<",
",=%O#&oO##            #OOo&#O%-,",
",<=;;-%##1 11 11  1 111O%%-;;=<<",
"-<,<,,O#O11 1 111     1##O,,<,,-"
};
