/* XPM */
static char *_647465261524[] = {
/* columns rows colors chars-per-pixel */
"32 32 129 2 ",
"   c #030301",
".  c #0C0201",
"X  c #030D03",
"o  c #0B0B03",
"O  c #04040A",
"+  c #0B040B",
"@  c #03080E",
"#  c #0B0B0B",
"$  c #140200",
"%  c #1A0100",
"&  c #140B01",
"*  c #190D02",
"=  c #120109",
"-  c #1D030C",
";  c #13090B",
":  c #19080E",
">  c #051002",
",  c #0B1300",
"<  c #0D1D00",
"1  c #06110B",
"2  c #151306",
"3  c #070015",
"4  c #0D0213",
"5  c #040F11",
"6  c #160613",
"7  c #150D13",
"8  c #1B0F13",
"9  c #110F1A",
"0  c #011015",
"q  c #121214",
"w  c #161618",
"e  c #19191B",
"r  c #230201",
"t  c #2A0301",
"y  c #210D05",
"u  c #2A0C01",
"i  c #210E08",
"p  c #350500",
"a  c #2E1006",
"s  c #000320",
"d  c #33322E",
"f  c #333335",
"g  c #3B3B3D",
"h  c #681C1E",
"j  c #4E2716",
"k  c #7F2105",
"l  c #782A03",
"z  c #78280F",
"x  c #7B3502",
"c  c #602213",
"v  c #682014",
"b  c #642D14",
"n  c #6F291F",
"m  c #762514",
"M  c #7E2714",
"N  c #792E17",
"B  c #76211A",
"V  c #7E271E",
"C  c #603113",
"Z  c #4B392F",
"A  c #5C3224",
"S  c #4A3836",
"D  c #453639",
"F  c #4F3639",
"G  c #41383B",
"H  c #4E3F3A",
"J  c #5C3B32",
"K  c #742520",
"L  c #693C25",
"P  c #753221",
"I  c #3B572F",
"U  c #304438",
"Y  c #38483D",
"T  c #444428",
"R  c #4C4529",
"E  c #57492E",
"W  c #4C413D",
"Q  c #47483A",
"!  c #584234",
"~  c #58413B",
"^  c #65443D",
"/  c #3E3E40",
"(  c #4D3D45",
")  c #573D60",
"_  c #2D4547",
"`  c #3D4047",
"'  c #3C4B48",
"]  c #2B4B58",
"[  c #3C4D52",
"{  c #375357",
"}  c #395155",
"|  c #444445",
" . c #4B4343",
".. c #404A42",
"X. c #4D4845",
"o. c #464648",
"O. c #4C4149",
"+. c #46494C",
"@. c #4A4A4B",
"#. c #485247",
"$. c #444550",
"%. c #4C4654",
"&. c #4D4C52",
"*. c #5A4258",
"=. c #4D5150",
"-. c #644B46",
";. c #76726F",
":. c #727274",
">. c #7D7976",
",. c #777779",
"<. c #77787D",
"1. c #7A797B",
"2. c #941711",
"3. c #812204",
"4. c #852A00",
"5. c #8D200C",
"6. c #872E0E",
"7. c #83230B",
"8. c #92230F",
"9. c #842217",
"0. c #83241B",
"q. c #8E261B",
"w. c #832E1A",
"e. c #813829",
"r. c #887C1A",
"t. c #738414",
"y. c #737780",
"u. c #767980",
"i. c #7E7E80",
/* pixels */
":.1.1.1.1.1.o.o.o.o.o.| +.X.o.| +.o.o.o.+.X.o.o.o.| 1.1.1.1.1.:.",
"1.i.:.,.,.:.@.o.o.o.| +.o.o.o.o.X.o.o.o.| o.o.o.o.@.:.,.<.:.i.1.",
"1.:.+.| o.@.| o.o.o.X.o.| o.o.o.o.o.| o.o.o.o.o.o.| @.o.| o.:.<.",
"1.,.| | o.| | | o.o.o.o.o.o.o.o.o.o.o.o.o.o.o.o.| o.| | | | <.1.",
",.,.o.o.+.| @.| | +.| o.o.o.o.o.o.o.o.o.o.o.o.| X.@.| +.| +.,.1.",
"1.,.@.| | | +.o.o.o.o.o.o.o.o.| +.| o.o.o.o.o.o.| +.| o.| @.:.1.",
"| @.| | @.@.o.| o.o.o.o.o.o.o.o.X.o.o.| o.X.o.o.| o.@.@.o.| +.X.",
"o.o.o.| o.| | o.o.o.o.o.o.X.o.o.o.o.o.o.| +.o.o.o.| | | | | o.o.",
"o.o.o.o.o.o.o.o.) { U E 3.l 6.3.k 6.l k E U { ) o.o.o.o.o.o.o.o.",
"o.o.o.o.| X.o.o.~ _ ^ K 0.r % r r % r 0.K ^ _ ~ o.o.o.o.o.o.o.X.",
"X.o.o.o.o.+.o.o.R &.M h r   $ O O $   r h M &.R o.o.o.| o.o.o.o.",
"o.o.o.o.o.o.o.o.Y O.4.t   o r.; ; r.o   t 4.O.Y o.o.o.o.o.o.o.o.",
"o.o.o.o.o.o.o.| [ $.x % - o t.$ $ t.& - $ x +.' o.X.+.| o.| o.o.",
"o.o.o.o.o.o.o.o.X.) z   . 4 < $ . < 4 . . z ) X.o.+.| o.| +.o.o.",
"o.o.o.o.o.o.o.o.H F q.. , 3   ; :   3 > . q.F W | o.o.o.o.o.o.X.",
"o.o.X.o.| o.o.o.Q I 5.N $ 7 O $ $ O 7 $ N 5.I | o.o.o.o.o.o.o.o.",
"o.o.| o.o.| o.| %.( J L C t % $ % % t C L J ( %.o.@.o.| | @.o.o.",
"| o.+.o.o.@.@.X.] [ W A P m 0.0.0.0.m P A W [ ] o.@.+.@.o.o.| o.",
"| | +.| | | Y | =.f * $ & $ $ $ $ $ $ % $ * d =.| | ( o.o.o.| o.",
"o.@.@.o.| | ` @.Z y . . & #     X   o # . . y Z +.+.Y | o.+.o.o.",
"| o.o.o.| +.@.( ;   + .   $ % $ $ $ ;   . +   ; g @.&.| @.o.o.o.",
"@.o.o.o.| +.| #     o #       o o       # O   . e f &.o.X.o.| o.",
"o.| o.@.o.&.g O   2   . ;   O + +     ; .   2     q | | | o.| o.",
"o.o.o.o.o.g w   6 ( : . . . & .   & . $ . : ( 6 + O | o.o.@.o.| ",
" .| +.o.o.-.j p V +.  y +   % s O $ @ 0 $ $ ! b p j -. .| +.o.| ",
"X.+.$.` ( S a j t T + O o , + # & r   0 .   W y j a F | | $.o.+.",
";.1.+.+.&.g S -.Q *   8 . X > $ . &     # + 9 G -.S G &.+.+.1.;.",
">.1.@.+.%.&.|  .| O . %   .   $ = . + + X X   #. .| &.&.o.@.1.>.",
"1.:.o.` o.` ` +.{ . +   $ $ X . # X . $ . . %  .$./ +.+.` o.:.1.",
"1.1.o.+.&.o.$.$.' O r   7 O &   $ o $ r . $ $ %.$.+.+.@.+.+.1.<.",
"y.1.1.:.>.1.@.o.$ o B t   X v * n u c e.. & % > o.+.1.1.:.1.<.y.",
"y.y.1.1.>.;.#.|   8.2.o 9.$ % 7.%   t m r b w.r | o.;.>.1.1.y.y."
};
