/* XPM */
static char *_647465305079[] = {
/* columns rows colors chars-per-pixel */
"32 32 19 1 ",
"  c #424244",
". c #434345",
"X c #444446",
"o c #454547",
"O c #464648",
"+ c #474749",
"@ c #48484A",
"# c #49494B",
"$ c #4B4B4D",
"% c #727274",
"& c #737375",
"* c #767678",
"= c #777779",
"- c #78787A",
"; c #79797B",
": c #7B7B7D",
"> c #FF9166",
", c #FFE478",
"< c #7E7E80",
/* pixels */
"&;;:;;oOOOOOOOOOOOOOOOOO+O;;:;;&",
";<&**&$OOOOOOOOOOOOOOOOOO#&**&:;",
";&oOOOooOOOOOOOOOOOOOOOOOOOOO#&;",
":*OOOOOOOOOOOOOOOOOOOOOOO,,OOO*:",
";*OOOOOOOOOOOOOOOOOOOOOOO,,OOO*;",
";&OOOOOOOOOOOOOOOOOOOOO,,OO,,O&;",
"o#OOOOOOOOOOOOOOOOOOOOO,,OO,,O#o",
"OOOOOOOOOOOOOOOOOOOOOOO,,,,O O+O",
"OOOOOOOOOOOOOOOOOOOOOO,,,,,OOOOO",
"OOOOOOOOOOOOOOOOOOOOO,,,OOOOOOOO",
"OOOOOOOOOOOOOOOOOOOO,,,OOOOOOOOO",
"OOOOOOOOOOOOOOOOOOO,,,OOOOOOOOOO",
"OOOOOOOOOOOOOOOOOO,,,OOOOOOOOOOO",
"OOOOOOOOOOOOOOOOO,,,OOOOOOOOOOOO",
"OOOOOOOOOOOOOOOO,,,OOOOOOOOOOOOO",
"OOOOOOOOOOOOOOO,,,OOOOOOOOOOOOOO",
"OOOOOOOOOOOOOO,,,OOOOOOOOOOOOOOO",
"OOOOOOOOOOOOO,,,OOOOOOOOOOOOOOOO",
"OOOOOOOOOOO,,,,OOOOOOOOOOOOOOOOO",
"OOO,,,,,,,,>>,OOOOOOOOOOOOOOOOOO",
"OO,,,,,,,,,>>,OOOOOOOOOOOOOOOOOO",
"O,,OOOOOOOO,,OOOOOOOOOOOOOOOOOOO",
"O,,,OOOOOOO,,OOOOOOOOOOOOOOOOOOO",
"OO,,,OOOOOO,,OOOOOOOOOOOOOOOOOOO",
"OOO,,OOOOOO,,OOOOOOOOOOOOOOOOOOO",
"OOOOO>> OOO,,OOOOOOOOOOOOOOOOOOo",
":&oOO>>OOOO,,OOOOOOOOOOOOOOOOO&;",
";*OOOOO,,OO,,OOOOOOOOOOOOOO#oO*;",
":*OOOOO,,,O,,OOOOOOOOOOOOOOo o*:",
"-&OOOOOO,,,,OOOOOOOOOOOOOO$Oo+&;",
";<&**&OOO,,OOOOOOOOOOOOOOO&**&::",
"&;-:;;OOOOOOOOOOOOOOOOOOOo;;:-;&"
};
