/* XPM */
static char *_647465311764[] = {
/* columns rows colors chars-per-pixel */
"32 32 17 1 ",
"  c #444446",
". c #454547",
"X c #464648",
"o c #474749",
"O c #48484A",
"+ c #49494B",
"@ c #4B4B4D",
"# c #727274",
"$ c #737375",
"% c #767678",
"& c #777779",
"* c #78787A",
"= c #79797B",
"- c #7B7B7D",
"; c #FF9166",
": c #FFE478",
"> c #7E7E80",
/* pixels */
"$==-==.XXXXXXXXXXXXXXXXXXX==-==$",
"=>$%%$@XXXXXXXXXXXXXXXXXX+$%%$-=",
"=$.XXX..XXXXXXXXXXXXXXXXXXXXX+$=",
"-%XXXXXXXXXXXXXXXXXXXXXXXXXXXX%-",
"=%XXXXXXXXXXXXXXXXXXXXXXXXXXXX%=",
"=-XXXXXXXXXXXXXXXXXXXXXXXXXXXX$=",
"XXXXXXXXXXXXXXXXXXXXXXXXXXXXXX+.",
"XXXXXXXXXXXXXXXXXXXXXXXXXXXXX.+X",
"XXXXXXXXXXXXXXXXXXXXXXXXXXXXXXXX",
"XXXXXXXXXXXXXXXXXXXXXXXXXXXXXXXX",
"XXXXXXXXXXXXXXXXXXXXXXXXXXXXXXXX",
"XXXXXXXXXXXXXXXXXXXXXXXXXXXXXXXX",
"XXX:::::XXXXXXXXXXXXXXXXXXXXXXXX",
"XX:::::::XXXXXXXXXXXXXXXXXXXXXXX",
"XX::XXX::::;::;::;::;::;::;::;XX",
"XX::XXX:::;::;::;::;::;::;::;:XX",
"XX::XXX::;::;::;::;::;::;::;::XX",
"XX:::::::XXXXXXXXXXX::XX::XX::XX",
"XXX:::::XXXXXXXXXXXX::XX::XX::XX",
"XXXXXXXXXXXXXXXXXXXXXXXXXXXXXXXX",
"XXXXXXXXXXXXXXXXXXXXXXXXXXXXXXXX",
"XXXXXXXXXXXXXXXXXXXXXXXXXXXXXXXX",
"XXXXXXXXXXXXXXXXXXXXXXXXXXXXXXXX",
"XXXXXXXXXXXXXXXXXXXXXXXXXXXXXXXX",
"XXXXXXXXXXXXXXXXXXXXXXXXXXXXXXXX",
"XXXXXXXXXXXXXXXXXXXXXXXXXXXXXXX.",
"-$.XXXXXXXXXXXXXXXXXXXXXXXX.XX$=",
"=%XXXXXXXXXXXXXXXXXXXXXXXXX+.X%=",
"-%XXXXXXXXXXXXXXXXXXXXXXXXXXXX=-",
"*$XXXXXXXXXXXXXXXXXXXXXXXX@X.X$%",
"=>$%%$XXXXXXXXXXXXXXXXXXXX$%%#>=",
"$=*-==XXXXXXXXXXXXXXXXXXX.==-==$"
};
