/* XPM */
static char *_647465325107[] = {
/* columns rows colors chars-per-pixel */
"32 32 13 1 ",
"  c #222323",
". c #303033",
"X c #434347",
"o c #43434F",
"O c #47474C",
"+ c #4E4E56",
"@ c #56565F",
"# c #5D5D60",
"$ c #7B7B7D",
"% c #7E7E8F",
"& c #8D8D91",
"* c #A1A1AD",
"= c #C2C2D1",
/* pixels */
"                                ",
"                                ",
"                                ",
"oooooooooooooooooooooooooooooooo",
"oooooooooooooooooooooooooooooooo",
"oooooooooooooooooooooooooooooooo",
"oooooooooooooooooooooooooooooooo",
"oooooooooooooooooooooooooooooooo",
"      oooooooooooooooooooooooooo",
"      oooooooooooooooooooooooooo",
"%%%%%       oooooooooooooooooooo",
"%%%%%       oooooooooooooooooooo",
"%%%%%@@@@@@         oooooooooooo",
"%%%%%@@@@@@         oooooooooooo",
"%%%%%@@@@@@++++++++         oooo",
"%%%%%@@@@@@++++++++         oooo",
"%%%%%@@@@@@++++++++OOOOOOOO     ",
"%%%%%@@@@@@++++++++OOOOOOOO     ",
"%%%%%@@@@@@++++++++OOOOOOOOXXXXX",
"%%%%%@@@@@@++++++++OOOOOOOOXXXXX",
"%%%%%@@@@@@++++++++OOOOOOOOXXXXX",
"%%%%%@@@@@@++++++++OOOOOOOOXXXXX",
"%%%%%@@@@@@++++++++OOOOOOOOXXXXX",
"%%%%%@@@@@@++++++++OOOOOOOOXXXXX",
"=====@@@@@@++++++++OOOOOOOOXXXXX",
"=====@@@@@@++++++++OOOOOOOOXXXXX",
"%%%%%******++++++++OOOOOOOOXXXXX",
"%%%%%******++++++++OOOOOOOOXXXXX",
"%%%%%@@@@@@&&&&&&&&OOOOOOOOXXXXX",
"%%%%%@@@@@@&&&&&&&&OOOOOOOOXXXXX",
"%%%%%@@@@@@++++++++########XXXXX",
"%%%$%@@@@@@++++++++########....."
};
