/* XPM */
static char *_647465318970[] = {
/* columns rows colors chars-per-pixel */
"32 32 5 1 ",
"  c #222323",
". c #43434F",
"X c #7B7B7D",
"o c #7E7E8F",
"O c #C2C2D1",
/* pixels */
"                                ",
"                                ",
"                                ",
"................................",
"................................",
"................................",
"................................",
"................................",
"      ..........................",
"      ..........................",
"oooo        ....................",
"oooo        ....................",
"oooo  oooo          ............",
"oooo  oooo          ............",
"oooo  oooo  oooooo          ....",
"oooo  oooo  oooooo          ....",
"oooo  oooo  oooooo  oooooo      ",
"oooo  oooo  oooooo  oooooo      ",
"oooo  oooo  oooooo  oooooo  oooo",
"oooo  oooo  oooooo  oooooo  oooo",
"oooo  oooo  oooooo  oooooo  oooo",
"oooo  oooo  oooooo  oooooo  oooo",
"oooo  oooo  oooooo  oooooo  oooo",
"oooo  oooo  oooooo  oooooo  oooo",
"OOOO  oooo  oooooo  oooooo  oooo",
"OOOO  oooo  oooooo  oooooo  oooo",
"oooo  OOOO  oooooo  oooooo  oooo",
"oooo  OOOO  oooooo  oooooo  oooo",
"oooo  oooo  OOOOOO  oooooo  oooo",
"oooo  oooo  OOOOOO  oooooo  oooo",
"oooo  oooo  oooooo  OOOOOO  oooo",
"oooX  oooo  oooooo  OOOOOO  OOOO"
};
