/* XPM */
static char *_647465331127[] = {
/* columns rows colors chars-per-pixel */
"32 32 19 1 ",
"  c #404042",
". c #424244",
"X c #434345",
"o c #444446",
"O c #454547",
"+ c #464648",
"@ c #474749",
"# c #48484A",
"$ c #49494B",
"% c #4B4B4D",
"& c #4C4C4E",
"* c #727274",
"= c #737375",
"- c #767678",
"; c #777779",
": c #78787A",
"> c #79797B",
", c #7B7B7D",
"< c #7E7E80",
/* pixels */
"=>>,>>o@@o@@@o@@oo@@@@oo$o>>,>>=",
"><=--=$@@o@o@@o@@@@oo@@@@$=--=,>",
">=@o@&Xo@@o@oo@@@@@oo@@@o &@o$=>",
",-oXoooXo@@@@@@ooo@@@@ooX@ooXo-,",
">-@o$o&o@@ooo@@@@@o@@o@@o&X$o@->",
">=%XX $@o@@@@@oo@o@@@@o@@$ oo&=>",
"o%X@%%@Xo@@@@o@@@@oooo@@X@$&@X$o",
"@@oXoooo@@oo@@o@o@@@@@@ooXo@ o@@",
"oo@@@@oo@@@o@o@@@@@o@oo@@@o@@@o@",
"@@@oo@@@@o@@@o@ooo@@@@@@@o@@o@o@",
"@@@oo@@@o@o@@@o@@@o@o@@o@@oo@o@@",
"oo@@@@oo@@o@o@@@@o@@o@@oo@@@@@@o",
"@@o@@o@@@o@@o@@o@@o@o@@@@@@ooo@@",
"@o@@@@o@@@o@o@@oo@o@@@o@oo@@@@@o",
"@@oooo@@oo@@@@@@@o@@@o@o@@o@@@@o",
"o@@@@@@o@@@o@oo@@@@o@o@@@o@@oo@@",
"@@@o@oo@@oo@o@@@oo@@@@oo@@o@@@o@",
"oo@@@@@@@@@@@@oo@@@oo@@@@o@@o@o@",
"@@o@o@@oo@@o@o@@@@@oo@@@@@oo@o@@",
"@o@@o@@oo@@o@@o@oo@@@@ooo@@@@@@o",
"@@o@o@@@@@@o@o@@@@o@@o@@@@@ooo@@",
"o@o@@@o@@o@@@o@o@o@@@@o@oo@@@@@o",
"@o@@@o@oo@o@@@o@@@oooo@@@@o@@@@o",
"@@@o@o@@@@o@o@@@o@@@@@@o@o@@oo@@",
"@@@ @oo@o@@@o@@o@@@o@oo@@Xo@ o@@",
"o$ @%$@X@@o@o@@ooo@@@@@@X@$&@X%o",
">=%oo $o@o@o@@@@@@o@o@@oo% Xo&=>",
">-@o$o&o@o@@@oo@@o@@o@@oo&X$oo->",
",-oXoo@ @o@@@oo@@@o@o@@@XooooX-,",
">*$o@% @@o@o@@@@o@o@@@o@oX%@o$=>",
">,*--=%@@@o@o@@o@o@@@o@o$$=--*,,",
"=,>,>>o@o@@@o@@o@@@o@o@@@o>>,>>="
};
