/* XPM */
static char *_647465344607[] = {
/* columns rows colors chars-per-pixel */
"32 32 116 2 ",
"   c #232520",
".  c #222421",
"X  c #232428",
"o  c #2F2E3E",
"O  c #323338",
"+  c #333438",
"@  c #343539",
"#  c #34353A",
"$  c #35363A",
"%  c #35363B",
"&  c #36373B",
"*  c #34343C",
"=  c #35353D",
"-  c #36373C",
";  c #36363E",
":  c #37373F",
">  c #37383C",
",  c #37383D",
"<  c #38393E",
"1  c #323141",
"2  c #333242",
"3  c #343440",
"4  c #383840",
"5  c #3F3E4E",
"6  c #403F4D",
"7  c #414050",
"8  c #555464",
"9  c #565565",
"0  c #5C5B6B",
"q  c #5D5D69",
"w  c #5E5E6A",
"e  c #5D5C6C",
"r  c #5E5D6D",
"t  c #5F5E6E",
"y  c #605F6D",
"u  c #605F6F",
"i  c #605F71",
"p  c #60606C",
"a  c #61616D",
"s  c #62626C",
"d  c #61606E",
"f  c #616070",
"g  c #626171",
"h  c #616072",
"j  c #626173",
"k  c #636272",
"l  c #646373",
"z  c #656474",
"x  c #666575",
"c  c #676676",
"v  c #686874",
"b  c #696878",
"n  c #6D6C7C",
"m  c #747383",
"M  c #757482",
"N  c #777783",
"B  c #757486",
"V  c #777686",
"C  c #787787",
"Z  c #797886",
"A  c #7B7B87",
"S  c #7D7D87",
"D  c #787789",
"F  c #797888",
"G  c #7A7989",
"H  c #7B7A88",
"J  c #7B7A8A",
"K  c #7C7B89",
"L  c #7C7B8B",
"P  c #7D7D89",
"I  c #7E7E88",
"U  c #7F7F89",
"Y  c #7D7C8A",
"T  c #7E7D8B",
"R  c #7E7E8A",
"E  c #7F7F8B",
"W  c #7B7A8C",
"Q  c #7D7C8C",
"!  c #7E7D8D",
"~  c #7F7E8C",
"^  c #7D7C8E",
"/  c #7E7D8F",
"(  c #7F7E8E",
")  c #7F7E90",
"_  c #807F8D",
"`  c #807F8F",
"'  c #807F91",
"]  c #80808A",
"[  c #81818B",
"{  c #81818D",
"}  c #82828C",
"|  c #81808E",
" . c #82818F",
".. c #82828E",
"X. c #83838F",
"o. c #84848E",
"O. c #818090",
"+. c #828191",
"@. c #838290",
"#. c #818092",
"$. c #828193",
"%. c #838292",
"&. c #848393",
"*. c #838294",
"=. c #848395",
"-. c #858494",
";. c #868595",
":. c #858496",
">. c #8A8A96",
",. c #878698",
"<. c #898898",
"1. c #8A8999",
"2. c #C3C3CD",
"3. c #C4C4CE",
"4. c #C4C3D3",
"5. c #C3C2D4",
/* pixels */
"2.2.2.2.2.2.2.2.2.2.2.2.2.2.2.2.2.2.2.2.3.2.2.2.2.2.2.2.2.2.2.2.",
"4.4.4.4.4.4.4.4.4.4.4.4.4.4.4.4.4.4.4.4.4.5.4.4.4.4.4.4.4.4.4.4.",
"5.5.5.5.5.5.5.5.5.5.5.5.5.5.5.5.5.5.5.5.5.5.5.5.5.5.5.5.5.5.5.5.",
"3.3.3.3.3.3.3.3.3.3.3.2.3.3.3.3.3.3.3.3.3.3.3.2.3.3.3.3.3.3.3.3.",
". . . . . . . . . . . . . . . . . . . . . . . . . . . . . . . . ",
". . . . .       . . .     . . .   . . . . . . . . . . . .       ",
"X X X X X X X X X X X X X X X X X X X X X X X X X X X X X X X X ",
"~ ~ ~ ^ ~ ~ ~ ~ ) ~ ~ ~ ~ ~ ~ ~ ~ ~ ~ ~ ~ ~ ~ ~ ~ ~ ~ ^ ~ ~ ~ ~ ",
":.F ~ #.~ ' ~ ~ ~ ~ E E ~ T ] E ~ K #.~ #.) F :.~ ) ~ ) ~ ) ~ ) ",
"F V ~ ~ ~ #.^ ~ ~ ~ ~ ~ ~ ~ ~ ~ ) T #.~ ~ ~ V F ) ~ ) ~ ) ~ ) ~ ",
") ~ #.^ T ` ~ ~ ) ) ) ) ) ) ) ) ) ~ #.T ~ ) ~ ) ~ ) ~ ) ~ ) ~ ) ",
"' ~ ~ F #.#.) ` ' ' ' ' ' ' ' ' ) ~ #.) ~ F ~ #.) ~ ) ~ ) ~ ) ~ ",
"~ ~ T ` #.K F T ) ) ~ ) ) ) ` ~ W F T | | ~ ~ ~ ~ ) ~ ) ~ ) ~ ) ",
"' ' #.#.~ F #.` | E ` ] ` ` ` ` #.#.F ~ #.#.) #.) ~ ) ~ ) ~ ) ~ ",
"~ ^ ~ ) F &.1.m T U S T S T S S m 1.#.F ) ~ ^ ^ ~ ) ~ ) ~ ) ~ ) ",
"~ ) ~ ) F #.m 5 , 3 < 4 < : < : 5 m ) ~ ) ~ ~ ~ ) ~ ) ~ ) ~ ) ~ ",
"~ ' ~ ~ F ,.~ 3 O O $ , & O $ , 3 T >.A T T | T T ~ ~ ~ ~ ~ ' #.",
") ' ~ @.L ~ D 7 < , , % & , O O 5 M T A | F U ~ E ' ' ' ' #.~ ~ ",
"~ L F #.#.#.:.M ..E ~ E ....| E V ,.#.#.=.W ) ) ~ ) ~ ~ ~ ) ~ ) ",
") ~ C L ~ L =.@.' E L L ~ ~ L W =.=.W ~ ) D ) ) ~ ) #.' ~ ~ ~ #.",
"~ ' ~ ' @.L L L ' ' #.' ' ~ ' ' W ) ~ :.=.) #.~ ) ~ ~ L W ~ ~ W ",
"L =.E ' =.=.' #.~ ' #.' ~ T ~ ) F ~ | | L L T A =.V x t i j x j ",
"' ' L F F ~ L ~ @.U T U | | E ~ | T ] U S ] o.| ' C n l g g g g ",
"~ E #.#.' ~ ~ | u 0 p v N | #.E 4 : % : , 4 : : 1 7 8 g g u t g ",
"g t x F :.#.T ~ g t t b C #.#.E : : : : : , : , o 7 9 g x d g g ",
"g t x V #.E ~ ) g u 0 t d g u 0 p s p s p s p d t u g g t e t t ",
"g t t u g u t t u g g u u t t u p e u u u p u u x g u t g g g g ",
"x g g g g t t i u g k g u u u g g g j u g u h h t t t u g g u 0 ",
"t t t t t t g g g g u u u u t t u u u h u u h h l x g u t u g g ",
"g g g g t g g g g u t u g x g d j j j j j g j j u g g g t t g x ",
"t t t t g t t g g u u t u t e 0 d u u g d d d d u g g g u t t 0 ",
"l t t g g g g g u g g g g u g g s s d u s d d d g u t t g g g g "
};
