/* XPM */
static char *_647465337305[] = {
/* columns rows colors chars-per-pixel */
"32 32 87 1 ",
"  c #3A3B3D",
". c gray24",
"X c #3E3E3E",
"o c #3F3F3F",
"O c #3D3E40",
"+ c #3E3F41",
"@ c #3F4042",
"# c gray25",
"$ c #414141",
"% c #404143",
"& c gray26",
"* c #434343",
"= c #414244",
"- c #424345",
"; c #444444",
": c gray27",
"> c #464646",
", c gray28",
"< c #484848",
"1 c #494949",
"2 c #48494B",
"3 c gray29",
"4 c #4B4B4B",
"5 c #494A4C",
"6 c #4A4B4D",
"7 c #4B4C4E",
"8 c #4C4C4C",
"9 c gray30",
"0 c #4C4D4F",
"q c #4E4E4E",
"w c gray31",
"e c #4D4E50",
"r c #4E4F51",
"t c #4F5052",
"y c #505050",
"u c #515151",
"i c #505153",
"p c gray32",
"a c #535353",
"s c #515254",
"d c #525355",
"f c #535456",
"g c gray33",
"h c #545557",
"j c #565656",
"k c #555658",
"l c #626365",
"z c #676767",
"x c #656668",
"c c DimGray",
"v c #696A6C",
"b c #6A6B6D",
"n c #6B6C6E",
"m c #6F6F6F",
"M c gray45",
"N c #747474",
"B c gray46",
"V c #77787A",
"C c gray47",
"Z c #797979",
"A c gray48",
"S c #7B7B7B",
"D c #797A7C",
"F c #7A7B7D",
"G c #7B7C7E",
"H c #7C7C7C",
"J c gray49",
"K c #7C7D7F",
"L c #7E7E7E",
"P c gray50",
"I c #7D7E80",
"U c #7E7F81",
"Y c #7F8082",
"T c #808080",
"R c #818181",
"E c #808183",
"W c gray51",
"Q c #838383",
"! c #818284",
"~ c #828385",
"^ c #838486",
"/ c #848484",
"( c gray53",
") c #868789",
"_ c gray55",
"` c #8D8D8D",
"' c gray56",
/* pixels */
"qqqqqqqqq8uTu88uqqqqqqqqqqqqqqqq",
"qqqqqqqqqqwLu88uqqqqqqqqqqqqqqqq",
"qqqqqqqqq8wTu8quqqqqqqqqqqqqqqqq",
"qqqqqqqqq8wLw88uqqqqqqqqqqqqqqqq",
"qqqqqqqqq8uTu88wqqqqqqqqqqqqqqqq",
"qqqqqqqqqqwLuq8uqqqqqqqqqqqqqqqq",
"qqqqqqqqq8wTu8quqqqqqqqqqqqqqqqq",
"qqqqqqqqq8wLu88uqqqqqqqqqqqqqqqq",
")FE!I!UFEETTETTE)V^FUYUUTTTWTWTW",
"lttt7ettqq8q8qq8VheO@2et8qq8q8q8",
"beqe6eet8qq8q88qYte22theq888888q",
"be6tee67wwwwwwwwYee6@-q7uquwuwqu",
"beehssetwwwwwwww!ete  7swuquwuww",
"be6sttes8q8q8q8qI6hs-O6t88888888",
"be6eeeeewwwwwwwwYete-O##uqwwwwuw",
"xeeeeee6qqqqqqqqY7eeie6#qqqqqqqq",
"zu388w4uwuwuwuuw!q3w8u>.&38uw8uw",
"zuuqugquwwwwwwquBiqwwguq#*<q4<3w",
"WC(SSQTTLTTTLTTL(CLTJTSTTLQWW'LT",
"ugNj8q8u888q888888giuu8wuqu<uMu#",
"3gJg<8<4uuuwuwuu8uq<<83q348,gTuX",
"<qJuupuu88888848www4wiuw8quuuS*#",
"qqW38u83qqqqqqqq48wuuuq3wguuuC*#",
"88(88wquqqqqqqqqw8qw<3u83p33uW8&",
"u<Tqqquqqquuuwuqqwqqq8q88u888Qw#",
"qwWu88u4q8888888q8888quuq888qT3#",
"8uTu4qw4uuuwqqwwu8888888u<q8uS>*",
"uuNu8wu88888qwww8qquuuwuu8uwum<8",
"TA`STTJLJTTTTTTTWTTJSJJJLTSTJ_CT",
"g3uqgu8wuuwww888u8<**<888uqq8u8u",
"u388uq<*&$####$*####*3uuqu838q3q",
"8qwq88*#*#X##>8qwqqw8848uwu3wg88"
};
